<svg width="1024" height="1024" viewBox="0 0 1024 1024" fill="none" xmlns="http://www.w3.org/2000/svg">
    <path
        d="M768.009 68.6025C845.234 113.19 909.474 177.173 954.37 254.218C999.267 331.262 1023.26 418.696 1023.98 507.865C1024.7 597.033 1002.12 684.843 958.477 762.603C914.831 840.362 851.633 905.375 775.139 951.204C698.645 997.034 611.508 1022.09 522.354 1023.9C433.2 1025.7 345.12 1004.19 266.835 961.492C188.549 918.795 122.773 856.392 76.0159 780.462C29.2592 704.532 3.1442 617.708 0.256009 528.583L0 511.994L0.256009 495.406C3.1234 406.983 28.854 320.812 74.9393 245.293C121.025 169.775 185.892 107.486 263.217 64.5005C340.542 21.5145 427.686 -0.701992 516.154 0.0169086C604.621 0.735809 691.393 24.3656 768.009 68.6025ZM512.006 204.794C499.466 204.796 487.362 209.4 477.99 217.733C468.619 226.067 462.631 237.55 461.164 250.004L460.806 255.994V511.994L461.266 518.702C462.434 527.585 465.912 536.006 471.353 543.124L475.807 548.244L629.409 701.844L634.222 706.042C643.201 713.009 654.243 716.79 665.608 716.79C676.973 716.79 688.015 713.009 696.994 706.042L701.807 701.793L706.057 696.98C713.023 688.001 716.805 676.959 716.805 665.594C716.805 654.23 713.023 643.188 706.057 634.209L701.807 629.396L563.207 490.746V255.994L562.849 250.004C561.381 237.55 555.394 226.067 546.023 217.733C536.651 209.4 524.547 204.796 512.006 204.794Z"
        fill="white" />
</svg>